<svg xmlns="http://www.w3.org/2000/svg" xmlns:xlink="http://www.w3.org/1999/xlink" version="1.1" x="0px" y="0px" viewBox="0 0 100 125" enable-background="new 0 0 100 100" xml:space="preserve"><path d="M40.9,14.9c0.5,0,0.9,0.4,1,0.9l6.6,59.5l6.6-59.5c0.1-0.5,0.5-0.9,1-0.9c0,0,0,0,0,0c0.5,0,0.9,0.4,1,0.8l6.5,49l2.9-26.2  c0.1-0.5,0.4-0.8,0.9-0.9c0.5-0.1,0.9,0.2,1,0.7l6.7,20l2.9-8.6c0.1-0.4,0.5-0.7,0.9-0.7H95v2H79.5L76,61.7  c-0.1,0.4-0.5,0.7-0.9,0.7s-0.8-0.3-0.9-0.7l-6.2-18.5l-3.3,29.7c-0.1,0.5-0.5,0.9-1,0.9c-0.5,0-0.9-0.4-1-0.8l-6.5-49l-6.7,60.3  c-0.1,0.5-0.5,0.9-1,0.9c-0.5,0-0.9-0.4-1-0.9l-6.4-57.3l-3.1,45.9c0,0.5-0.4,0.9-0.9,0.9c-0.5,0-0.9-0.3-1-0.8l-6.8-30.7l-6.5,19.4  c-0.1,0.4-0.5,0.7-0.9,0.7c-0.4,0-0.8-0.3-0.9-0.7L17.4,51H5v-2h13.1c0.4,0,0.8,0.3,0.9,0.7l2.9,8.6l6.7-20c0.1-0.4,0.5-0.7,1-0.7  c0.4,0,0.8,0.3,0.9,0.8l6.1,27.5l3.3-50.1C40,15.3,40.4,14.9,40.9,14.9C40.9,14.9,40.9,14.9,40.9,14.9z"/><text x="0" y="115" fill="#000000" font-size="5px" font-weight="bold" font-family="'Helvetica Neue', Helvetica, Arial-Unicode, Arial, Sans-serif"></text><text x="0" y="120" fill="#000000" font-size="5px" font-weight="bold" font-family="'Helvetica Neue', Helvetica, Arial-Unicode, Arial, Sans-serif"></text></svg>
