<svg xmlns="http://www.w3.org/2000/svg" xmlns:xlink="http://www.w3.org/1999/xlink" version="1.1" x="0px" y="0px" viewBox="0 0 100 125" style="enable-background:new 0 0 100 100;" xml:space="preserve"><g><path d="M92.604,46.951c0,3.361-2.725,6.086-6.086,6.086H76.086c-5.131,0-7.897-2.767-10.827-5.696   c-1.802-1.801-3.931-3.943-7.644-6.817l-5.7,10.21l12.819,12.781c1.722,1.722,2.252,4.303,1.348,6.563L55.651,96.161   c-1.158,2.896-4.552,4.734-7.912,3.392c-3.121-1.248-4.639-4.79-3.391-7.911l8.941-22.357l-7.671-7.661l-6.204,9.57   c-1.128,1.693-3.029,2.711-5.064,2.711H13.483c-3.361,0-6.086-2.725-6.086-6.086s2.725-6.086,6.086-6.086h17.61l15.991-27.774   C36.865,30.3,27.731,36.1,27.29,36.387c-2.798,1.862-6.607,1.073-8.47-1.726c-1.862-2.798-1.079-6.562,1.719-8.424   c7.887-5.254,23.353-9.715,37.935-0.078c0.013,0.007,0.023,0.015,0.035,0.022c0.028,0.019,0.058,0.038,0.087,0.056   c9.176,5.595,17.072,14.297,17.537,14.627h10.385C89.879,40.865,92.604,43.59,92.604,46.951z M68.258,26.083   c7.203,0,13.041-5.839,13.041-13.04C81.299,5.842,75.461,0,68.258,0S55.219,5.842,55.219,13.043   C55.219,20.244,61.055,26.083,68.258,26.083z"/></g><text x="0" y="115" fill="#000000" font-size="5px" font-weight="bold" font-family="'Helvetica Neue', Helvetica, Arial-Unicode, Arial, Sans-serif">Created by b farias</text><text x="0" y="120" fill="#000000" font-size="5px" font-weight="bold" font-family="'Helvetica Neue', Helvetica, Arial-Unicode, Arial, Sans-serif">from the Noun Project</text></svg>