<svg xmlns="http://www.w3.org/2000/svg" xmlns:xlink="http://www.w3.org/1999/xlink" version="1.1" x="0px" y="0px" viewBox="0 0 100 125" style="enable-background:new 0 0 100 100;" xml:space="preserve"><path d="M76.2443848,51.116394c3.0134888-2.2817383,4.9724121-5.8861694,4.9724121-9.9484253  c0-6.8857422-5.6015625-12.4873047-12.4873047-12.4873047c-6.8852539,0-12.4868164,5.6015625-12.4868164,12.4873047  c0,4.0611572,1.9578857,7.6646729,4.9697876,9.9465332c-2.7164917,0.6425171-5.2340698,1.9594727-7.3151245,3.8490601  c-2.7546387-3.979126-6.9173584-6.7300415-11.6103516-7.7142334c3.6348267-2.5681152,6.0196533-6.7936401,6.0196533-11.5725708  c0-7.8134766-6.3569336-14.1708984-14.1704102-14.1708984c-7.8139648,0-14.1708984,6.3574219-14.1708984,14.1708984  c0,4.7791138,2.3849487,9.0047607,6.0201416,11.572876C17.4390869,49.0422974,11,56.6389771,11,65.7158203v11.2783203  c0,0.828125,0.6713867,1.5,1.5,1.5h43.2700195H87.5c0.8286133,0,1.5-0.671875,1.5-1.5v-9.7841797  C89,59.3945923,83.545166,52.8426514,76.2443848,51.116394z M59.2426758,41.1679688  c0-5.2314453,4.2558594-9.4873047,9.4868164-9.4873047c5.2314453,0,9.4873047,4.2558594,9.4873047,9.4873047  c0,5.2304688-4.2558594,9.4863281-9.4873047,9.4863281C63.4985352,50.6542969,59.2426758,46.3984375,59.2426758,41.1679688z   M22.965332,35.6767578c0-6.1591797,5.0112305-11.1708984,11.1708984-11.1708984  c6.1591797,0,11.1704102,5.0117188,11.1704102,11.1708984c0,6.1461792-4.9906006,11.1478882-11.131897,11.1689453h-0.0770264  C27.9559326,46.824646,22.965332,41.822937,22.965332,35.6767578z M14,65.7158203  c0-8.7509766,7.1142578-15.8701172,15.8583984-15.8701172h4.2392578c0.0130005,0.000061,0.0255737,0.0019531,0.0385742,0.0019531  s0.0255737-0.0018921,0.0385742-0.0019531h4.2373047c5.7973633,0,11.125,3.1572266,13.9042969,8.2402344  c1.277832,2.3330078,1.9536133,4.9707031,1.9536133,7.6298828v9.7783203H14V65.7158203z M86,75.4941406H57.2700195v-9.7783203  c0-0.3740234-0.0131226-0.7475586-0.0354614-1.1203613c-0.0073242-0.1216431-0.0209351-0.2426147-0.0305786-0.3640137  c-0.0200195-0.2516479-0.0414429-0.5029297-0.0714722-0.753418c-0.0170898-0.1422729-0.0393677-0.2836304-0.0596313-0.425415  c-0.0327148-0.2288818-0.0674438-0.4572754-0.1085205-0.6846924c-0.0267944-0.1483765-0.0569458-0.2958374-0.0873413-0.4435425  c-0.0453491-0.2206421-0.0939941-0.4402466-0.1470947-0.6590576c-0.0357666-0.1472778-0.0728149-0.2939453-0.1121216-0.4403076  c-0.0587769-0.2190552-0.1225586-0.4364624-0.1891479-0.6533813c-0.0437012-0.1421509-0.086731-0.2843018-0.133728-0.425415  c-0.0743408-0.2232666-0.1554565-0.4440308-0.2380981-0.6644287c-0.0487671-0.1300049-0.0950317-0.2608643-0.1466675-0.3898315  c-0.0999756-0.2496338-0.2085571-0.4957275-0.3191528-0.7410889c-0.0430298-0.095459-0.0819702-0.1925049-0.1265869-0.2871704  c-0.0070801-0.0150146-0.0129395-0.0305176-0.0200806-0.0455322c2.534668-2.5283203,5.9746094-3.9609375,9.5844727-3.9609375  h7.4067383C79.9150391,53.6572266,86,59.7373047,86,67.2099609V75.4941406z"/><text x="0" y="115" fill="#000000" font-size="5px" font-weight="bold" font-family="'Helvetica Neue', Helvetica, Arial-Unicode, Arial, Sans-serif">Created by Edwin PM</text><text x="0" y="120" fill="#000000" font-size="5px" font-weight="bold" font-family="'Helvetica Neue', Helvetica, Arial-Unicode, Arial, Sans-serif">from the Noun Project</text></svg>